<svg id="Original" xmlns="http://www.w3.org/2000/svg" viewBox="0 0 729.82 204.21">
  <defs>
    <style>
      .cls-1{font-size:70.42px;font-family:Montserrat-Regular, Montserrat;letter-spacing:0.09em;}
      .cls-2{letter-spacing:0.08em;}
      .cls-3{letter-spacing:0.09em;}
      .cls-4{letter-spacing:0.1em;}
      .cls-5{stroke:#000;stroke-miterlimit:10;stroke-width:2px;}
    </style>
  </defs>
  <!-- Mitchell Text - Centered vertically around middle (102.1) -->
  <text class="cls-1" transform="translate(71.88 127.3) scale(0.98 1)">Mi<tspan class="cls-2" x="99.57" y="0">t</tspan><tspan class="cls-3" x="133.51" y="0">c</tspan><tspan class="cls-4" x="179.29" y="0">hell</tspan></text>
  
  <!-- Vertical Bar (Centered vertically at 102.1) -->
  <line class="cls-5" x1="438.98" y1="52.1" x2="438.98" y2="152.1"/>
  
  <!-- Official Forbes Branding (Centered vertically and horizontally balanced) -->
  <g transform="translate(486.45, 58.5) scale(1.4)">
    <g id="Group_117_Official" data-name="Group 117" transform="translate(-3895.564 -1479.684)">
      <g id="Group_116_Official" data-name="Group 116" transform="translate(3895.564 1479.684)">
        <path id="Path_92" data-name="Path 92" d="M3899.206,1637.9a11.579,11.579,0,0,1,2.75.337l-.11,1.347a5.459,5.459,0,0,0-2.682-.89c-1.425,0-1.991,1.163-1.991,2.619,0,2.088,1.175,3.381,2.784,3.381a2.053,2.053,0,0,0,.739-.12v-2.728h1.271v3.152a5.585,5.585,0,0,1-2.63.565c-2.206,0-3.771-1.3-3.771-4.012a3.392,3.392,0,0,1,3.641-3.651" transform="translate(-3895.564 -1583.28)"/>
        <path id="Path_93" data-name="Path 93" d="M3925.5,1638.335h1.544v6.555h.477a9.939,9.939,0,0,0,2.37-.272v1.076H3925.5Z" transform="translate(-3915.167 -1583.568)"/>
        <path id="Path_94" data-name="Path 94" d="M3950.419,1637.893c2,0,3.566,1.272,3.566,3.838a3.606,3.606,0,0,1-3.849,3.826c-2.01,0-3.564-1.271-3.564-3.826a3.6,3.6,0,0,1,3.848-3.838m1.912,4.251c0-1.794-.826-3.413-2.314-3.413-1.2,0-1.795,1.02-1.795,2.554,0,1.794.826,3.413,2.3,3.413,1.2,0,1.8-1.033,1.8-2.554" transform="translate(-3928.963 -1583.279)"/>
        <path id="Path_95" data-name="Path 95" d="M3978.774,1638.182s1.229-.13,2.011-.13c1.337,0,3.1.087,3.1,1.685,0,1.216-1.361,1.717-1.361,1.717s1.86.272,1.86,1.848c-.033,1.88-1.914,2.283-3.6,2.283-.772,0-2.011-.087-2.011-.087Zm2.107,3.088a1.294,1.294,0,0,0,1.479-1.382c0-.826-.74-1.119-1.412-1.13a3.326,3.326,0,0,0-.629.055v2.392a2.329,2.329,0,0,0,.562.065m.36,3.543a1.376,1.376,0,0,0,1.511-1.424,1.426,1.426,0,0,0-1.458-1.381c-.13-.011-.26-.011-.369-.011a3.045,3.045,0,0,0-.606.044v2.609a2.548,2.548,0,0,0,.922.163" transform="translate(-3950.049 -1583.383)"/>
        <path id="Path_96" data-name="Path 96" d="M4005.841,1638.335h1.783l2.707,7.359h-1.641l-.773-2.12h-2.827l-.739,2.12h-1.239Zm1.771,4.359-1.129-3.141-1.1,3.141Z" transform="translate(-3965.987 -1583.568)"/>
        <path id="Path_97" data-name="Path 97" d="M4033.533,1638.335h1.542v6.555h.479a9.938,9.938,0,0,0,2.369-.272v1.076h-4.391Z" transform="translate(-3985.906 -1583.568)"/>
        <path id="Path_98" data-name="Path 98" d="M4069.418,1638.171s1.228-.118,2.086-.118c1.685,0,3.543.185,3.543,2.174,0,2.75-3.1,2.577-4.087,2.587v2.695h-1.542Zm2.38,3.838c1.042,0,1.762-.447,1.762-1.631,0-1.326-.926-1.543-1.925-1.543a4.577,4.577,0,0,0-.674.053v3.013a2.491,2.491,0,0,0,.838.108" transform="translate(-4009.403 -1583.383)"/>
        <path id="Path_99" data-name="Path 99" d="M4095.467,1638.193s1.282-.14,2.261-.14c2.3,0,3.326.466,3.326,2a2.3,2.3,0,0,1-2,2.151c.882,1.1,1.751,2.2,2.633,3.306h-1.849l-2.152-3.152v-.6s.109.01.239.01a1.451,1.451,0,0,0,1.619-1.576c0-1.023-.716-1.445-1.706-1.445a3.321,3.321,0,0,0-.828.119v6.642h-1.542Z" transform="translate(-4026.459 -1583.383)"/>
        <path id="Path_100" data-name="Path 100" d="M4125.313,1637.893c2,0,3.565,1.272,3.565,3.838a3.605,3.605,0,0,1-3.849,3.826c-2.01,0-3.564-1.271-3.564-3.826a3.6,3.6,0,0,1,3.848-3.838m1.912,4.251c0-1.794-.826-3.413-2.314-3.413-1.2,0-1.795,1.02-1.795,2.554,0,1.794.826,3.413,2.3,3.413,1.2,0,1.8-1.033,1.8-2.554" transform="translate(-4043.483 -1583.279)"/>
        <path id="Path_101" data-name="Path 101" d="M4153.65,1638.171s1.228-.118,2.087-.118c1.685,0,3.542.185,3.542,2.174,0,2.75-3.1,2.577-4.087,2.587v2.695h-1.542Zm2.38,3.838c1.042,0,1.761-.447,1.761-1.631,0-1.326-.925-1.543-1.925-1.543a4.566,4.566,0,0,0-.674.053v3.013a2.493,2.493,0,0,0,.837.108" transform="translate(-4064.558 -1583.383)"/>
        <path id="Path_102" data-name="Path 102" d="M4179.7,1638.335h4.445v1.065a10.076,10.076,0,0,0-2.368-.271h-.535v2.36h2.816v.761h-2.816v2.641h.729a9.917,9.917,0,0,0,2.36-.272v1.076H4179.7Z" transform="translate(-4081.618 -1583.568)"/>
        <path id="Path_103" data-name="Path 103" d="M4203.609,1638.193s1.281-.14,2.26-.14c2.3,0,3.326.466,3.326,2a2.3,2.3,0,0,1-2,2.151c.882,1.1,1.751,2.2,2.633,3.306h-1.849l-2.152-3.152v-.6s.109.01.239.01a1.451,1.451,0,0,0,1.619-1.576c0-1.023-.717-1.445-1.706-1.445a3.289,3.289,0,0,0-.825.119v6.642h-1.544Z" transform="translate(-4097.271 -1583.383)"/>
        <path id="Path_104" data-name="Path 104" d="M4231.054,1639.237h-2.37v-.9h6.271v.9H4232.6v6.457h-1.544Z" transform="translate(-4113.69 -1583.568)"/>
        <rect id="Rectangle_44" data-name="Rectangle 44" width="1.544" height="7.359" transform="translate(124.474 54.767)"/>
        <path id="Path_105" data-name="Path 105" d="M4272.333,1638.335h4.445v1.065a10.069,10.069,0,0,0-2.368-.271h-.533v2.36h2.814v.761h-2.814v2.641h.727a9.938,9.938,0,0,0,2.36-.272v1.076h-4.631Z" transform="translate(-4142.271 -1583.568)"/>
        <path id="Path_106" data-name="Path 106" d="M4295.4,1643.806a4.692,4.692,0,0,0,2.51.957c.665,0,1.2-.3,1.2-1.077,0-.8-.762-1.108-1.632-1.413-1.088-.38-2.143-.826-2.143-2.174,0-1.446,1.2-2.141,2.7-2.141a6.093,6.093,0,0,1,2.087.314l-.1,1.229a4.2,4.2,0,0,0-2.11-.717c-.609,0-1.1.261-1.1.849,0,.989.912,1.173,1.911,1.511.969.337,1.86.825,1.86,2.108,0,1.8-1.392,2.348-2.838,2.348a6.455,6.455,0,0,1-2.456-.423c.042-.457.075-.914.108-1.37" transform="translate(-4157.302 -1583.321)"/>
        <path id="Path_107_Official" data-name="Path 107" d="M3976.788,1491.4c0-4.194.072-8.1.289-11.716l-11.066,2.1v1.013l1.084.144a1.993,1.993,0,0,1,1.591.8,6.4,6.4,0,0,1,.651,2.315c.145,2.1.29,6.871.217,14.393,0,7.45-.072,12.151-.217,13.959a45.7,45.7,0,0,0,9.4,1.229c4.339,0,7.739-1.229,10.2-3.761,2.459-2.459,3.761-5.931,3.761-10.2a12.719,12.719,0,0,0-2.821-8.462,8.868,8.868,0,0,0-7.088-3.327,14.151,14.151,0,0,0-6,1.518m.217,22.278c-.146-2.314-.29-9.258-.29-20.613a8.3,8.3,0,0,1,2.6-.362,4.56,4.56,0,0,1,4.123,2.676,13.415,13.415,0,0,1,1.518,6.726,18.563,18.563,0,0,1-1.736,8.462c-1.157,2.243-2.6,3.4-4.411,3.4a13.333,13.333,0,0,0-1.809-.29m-52.51-33.271h-28.93v1.447l1.519.145a3.841,3.841,0,0,1,2.459,1.3,6.725,6.725,0,0,1,.869,3.472,137.571,137.571,0,0,1,0,21.843,8.57,8.57,0,0,1-.869,3.471,3.293,3.293,0,0,1-2.459,1.3l-1.519.218v1.447h18.661v-1.447l-1.954-.145a3.544,3.544,0,0,1-2.459-1.3,6.722,6.722,0,0,1-.868-3.472c-.217-2.893-.361-6.22-.361-9.908l3.905.072c2.1.072,3.544,1.664,4.267,4.846h1.447v-11.789h-1.447c-.723,3.109-2.1,4.7-4.267,4.773l-3.906.072c0-6.509.145-11.138.362-13.959h5.714c4.051,0,6.8,2.6,8.39,7.811l1.736-.507Zm-3.4,22.277a13.9,13.9,0,0,0,3.182,9.33c2.1,2.459,5.209,3.616,9.114,3.616a12.152,12.152,0,0,0,9.4-3.761,13.021,13.021,0,0,0,3.4-9.33,13.9,13.9,0,0,0-3.183-9.33c-2.1-2.459-5.208-3.617-9.113-3.617a12.157,12.157,0,0,0-9.4,3.762,13.022,13.022,0,0,0-3.4,9.33m16.129-8.246a21.874,21.874,0,0,1,1.229,8.173c0,7.666-1.592,11.427-4.7,11.427q-2.387,0-3.689-3.255a22.343,22.343,0,0,1-1.23-8.173c0-7.6,1.591-11.355,4.7-11.355,1.592-.073,2.821,1.012,3.689,3.182m61.117,17.575a12.319,12.319,0,0,0,9.041,3.616,12.167,12.167,0,0,0,5.931-1.374,10.884,10.884,0,0,0,4.05-3.255l-.723-.867a8.665,8.665,0,0,1-5.5,1.808,7.929,7.929,0,0,1-6.655-2.893,10.7,10.7,0,0,1-2.169-7.594H4017.8a13.1,13.1,0,0,0-2.676-8.535,9.341,9.341,0,0,0-7.6-3.255c-4.05,0-7.16,1.3-9.4,3.833a13.545,13.545,0,0,0-3.326,9.331,12.37,12.37,0,0,0,3.544,9.185m5.352-18.155c.795-1.735,1.808-2.6,3.182-2.6,2.171,0,3.255,2.748,3.255,8.317l-7.667.145a15.139,15.139,0,0,1,1.231-5.859m33.56-2.893a18.141,18.141,0,0,0-7.378-1.374,10.844,10.844,0,0,0-7.233,2.315,7.119,7.119,0,0,0-2.749,5.641,6.177,6.177,0,0,0,1.663,4.556,13.705,13.705,0,0,0,5.063,2.821,13.761,13.761,0,0,1,4.195,2.1,3.59,3.59,0,0,1,0,5.281,3.875,3.875,0,0,1-3.037,1.157c-3.183,0-5.569-2.314-7.233-6.943l-1.229.362.289,7.232a23.754,23.754,0,0,0,8.679,1.519c3.328,0,5.859-.723,7.74-2.242a7.363,7.363,0,0,0,2.821-6.148,6.31,6.31,0,0,0-1.374-4.267,11.855,11.855,0,0,0-4.629-2.894,18.057,18.057,0,0,1-4.918-2.387,3.321,3.321,0,0,1-1.3-2.676,3.789,3.789,0,0,1,.941-2.676,3.072,3.072,0,0,1,2.459-1.012c2.893,0,4.991,2.1,6.292,6.22l1.229-.362Zm-69.579-.651a7.24,7.24,0,0,0-3.327-.723,6.5,6.5,0,0,0-3.834,1.519,9.778,9.778,0,0,0-3.183,4.268l.072-5.787-10.994,2.17v1.012l1.086.072c1.373.145,2.169,1.231,2.314,3.182a78.933,78.933,0,0,1,0,14.322c-.145,1.952-.941,2.965-2.314,3.182l-1.086.145v1.375h15.334v-1.375l-1.954-.145c-1.374-.145-2.17-1.229-2.314-3.182a73.942,73.942,0,0,1-.145-13.31,3.487,3.487,0,0,1,2.821-1.3,8.193,8.193,0,0,1,4.846,1.3" transform="translate(-3895.564 -1479.684)"/>
        <path id="Path_108" data-name="Path 108" d="M3895.564,1603.678v.963h143.281v-5.774Z" transform="translate(-3895.564 -1557.724)"/>
      </g>
    </g>
  </g>
</svg>